<svg xmlns="http://www.w3.org/2000/svg" width="1200" height="800" viewBox="0 0 1200 800">
  <!-- Background Grid Pattern -->
  <defs>
    <pattern id="grid" width="100" height="100" patternUnits="userSpaceOnUse">
      <path d="M 100 0 L 0 0 0 100" fill="none" stroke="#00ffff" stroke-width="8" opacity="1.0"/>
    </pattern>
    <!-- Circuit Pattern -->
    <pattern id="circuit" width="240" height="240" patternUnits="userSpaceOnUse">
      <path d="M 24 120 h 72 v 72 h 72" fill="none" stroke="#00ccff" stroke-width="8" opacity="1.0"/>
      <circle cx="192" cy="192" r="10" fill="#00ffff" opacity="1.0"/>
      <path d="M 216 24 v 72 h -72" fill="none" stroke="#00ccff" stroke-width="8" opacity="1.0"/>
      <circle cx="120" cy="96" r="10" fill="#00ffff" opacity="1.0"/>
      <!-- Additional circuit elements -->
      <path d="M 24 24 h 48 v 48" fill="none" stroke="#00ccff" stroke-width="8" opacity="1.0"/>
      <circle cx="72" cy="72" r="10" fill="#00ffff" opacity="1.0"/>
    </pattern>
  </defs>
  
  <!-- Base Background -->
  <rect width="100%" height="100%" fill="#1a1e24"/>
  
  <!-- Layered Patterns -->
  <rect width="100%" height="100%" fill="url(#grid)"/>
  <rect width="100%" height="100%" fill="url(#circuit)"/>
  
  <!-- Abstract Computer Elements -->
  <g transform="translate(240,160)" opacity="1.0">
    <!-- Monitor -->
    <rect x="0" y="0" width="720" height="480" rx="24" fill="none" stroke="#00ccff" stroke-width="8"/>
    
    <!-- Screen -->
    <rect x="48" y="48" width="624" height="384" fill="#00ccff" opacity="1.0"/>
    
    <!-- Code Lines -->
    <g fill="#ffffff">
      <rect x="60" y="60" width="200" height="6" opacity="0.8"/>
      <rect x="60" y="80" width="300" height="6" opacity="0.7"/>
      <rect x="60" y="100" width="250" height="6" opacity="0.8"/>
      <rect x="60" y="120" width="180" height="6" opacity="0.9"/>
      <!-- Additional code lines -->
      <rect x="60" y="140" width="280" height="6" opacity="0.8"/>
      <rect x="60" y="160" width="220" height="6" opacity="0.7"/>
    </g>
    
    <!-- Enhanced Circuit Board Patterns -->
    <path d="M0 350 Q 300 380 600 350" stroke="#0099ff" fill="none" stroke-width="6"/>
    <path d="M0 360 Q 300 330 600 360" stroke="#00ccff" fill="none" stroke-width="6"/>
    <path d="M0 370 Q 150 390 300 370 Q 450 350 600 370" stroke="#0080ff" fill="none" stroke-width="6"/>
    
    <!-- Additional Circuit Elements -->
    <g opacity="0.8">
      <circle cx="150" cy="350" r="8" fill="#00ccff"/>
      <circle cx="300" cy="360" r="8" fill="#0099ff"/>
      <circle cx="450" cy="350" r="8" fill="#00ccff"/>
      <!-- New connection points -->
      <circle cx="200" cy="355" r="8" fill="#0099ff"/>
      <circle cx="350" cy="365" r="8" fill="#00ccff"/>
      <circle cx="500" cy="355" r="8" fill="#0099ff"/>
    </g>

    <!-- Additional Tech Elements -->
    <g opacity="0.7">
      <path d="M100 300 h50 v30 h30" stroke="#00ccff" fill="none" stroke-width="4"/>
      <path d="M400 300 h-50 v30 h-30" stroke="#0099ff" fill="none" stroke-width="4"/>
      <circle cx="180" cy="300" r="6" fill="#00ccff"/>
      <circle cx="350" cy="300" r="6" fill="#0099ff"/>
    </g>
  </g>
</svg>
